<?xml version="1.0" encoding="UTF-8" standalone="no"?>
<svg
   xmlns:dc="http://purl.org/dc/elements/1.1/"
   xmlns:cc="http://creativecommons.org/ns#"
   xmlns:rdf="http://www.w3.org/1999/02/22-rdf-syntax-ns#"
   xmlns:svg="http://www.w3.org/2000/svg"
   xmlns="http://www.w3.org/2000/svg"
   xmlns:xlink="http://www.w3.org/1999/xlink"
   xmlns:sodipodi="http://sodipodi.sourceforge.net/DTD/sodipodi-0.dtd"
   xmlns:inkscape="http://www.inkscape.org/namespaces/inkscape"
   width="490"
   height="549"
   viewBox="0 0 129.64583 145.25625"
   version="1.1"
   id="svg8"
   inkscape:version="1.0.2-2 (e86c870879, 2021-01-15)"
   sodipodi:docname="currency_LINK.svg">
  <defs
     id="defs2">
    <linearGradient
       inkscape:collect="always"
       id="linearGradient903">
      <stop
         style="stop-color:#3581e7;stop-opacity:1;"
         offset="0"
         id="stop899" />
      <stop
         style="stop-color:#0055d4;stop-opacity:1"
         offset="1"
         id="stop901" />
    </linearGradient>
    <clipPath
       clipPathUnits="userSpaceOnUse"
       id="clipPath1313">
      <path
         style="fill:#000000;stroke-width:0.772192"
         d="m -142.77839,1417.2915 c -5.17265,-0.5304 -11.09494,-1.7277 -13.80476,-2.7911 -0.6508,-0.2555 -1.4495,-0.5361 -1.7749,-0.6241 -0.3254,-0.088 -0.68038,-0.2283 -0.78884,-0.312 -0.10851,-0.084 -0.86846,-0.2734 -1.6889,-0.4212 -2.14488,-0.3866 -15.69095,-6.748 -17.06846,-8.0155 -0.63851,-0.5876 -2.22587,-1.7199 -3.52747,-2.5164 -4.09049,-2.503 -11.46938,-9.6517 -15.99482,-15.4959 -3.93536,-5.0824 -9.64258,-14.8702 -9.64258,-16.5368 0,-0.3633 -0.5116,-1.6484 -1.13687,-2.8554 -0.62528,-1.2073 -1.33619,-3.0454 -1.5798,-4.0848 -0.24361,-1.0393 -0.98745,-4.1006 -1.65298,-6.803 -1.7392,-7.0617 -1.73163,-21.5692 0.0152,-29.102 0.77128,-3.326 1.69053,-6.3979 2.0428,-6.8266 0.35227,-0.4286 0.82811,-1.7708 1.05743,-2.9826 0.44191,-2.3352 6.46667,-14.8342 7.47084,-15.499 0.32588,-0.2157 1.91266,-2.3161 3.52615,-4.6677 5.77827,-8.4209 19.3318,-19.0433 29.69942,-23.2768 2.38626,-0.9744 5.41184,-2.2113 6.72352,-2.7487 1.3117,-0.5375 3.26408,-1.1688 4.33865,-1.4029 1.07456,-0.2344 4.26111,-0.9497 7.08123,-1.5898 7.25985,-1.6479 23.21962,-1.628 30.76489,0.039 3.254,0.7185 6.27133,1.5778 6.70517,1.9095 0.43387,0.3318 1.05509,0.6322 1.38049,0.6675 0.32539,0.035 0.68038,0.089 0.78881,0.1223 0.10851,0.031 0.86848,0.1789 1.68893,0.3268 2.14489,0.3866 15.690939,6.748 17.068469,8.0155 0.6385,0.5875 2.225871,1.7199 3.527462,2.5164 4.090479,2.5029 11.469378,9.6516 15.9948,15.4959 3.935371,5.0824 9.642589,14.87 9.642589,16.5367 0,0.3633 0.511596,1.6484 1.13687,2.8555 0.625303,1.2072 1.336188,3.0454 1.579803,4.0847 0.243586,1.0393 0.987444,4.1006 1.652995,6.8031 1.739199,7.0617 1.731632,21.5692 -0.01479,29.102 -0.771276,3.326 -1.690526,6.3979 -2.042822,6.8265 -0.352261,0.4287 -0.828106,1.7709 -1.057439,2.9827 -0.441896,2.3351 -6.466657,14.8342 -7.470838,15.499 -0.325856,0.2157 -1.912636,2.3161 -3.526123,4.6675 -5.778278,8.421 -19.33179,19.0435 -29.699446,23.2769 -2.38624,0.9746 -5.40353,2.204 -6.70513,2.7323 -5.52118,2.2407 -22.68507,5.1516 -28.00397,4.7491 -0.65078,-0.049 -3.6681,-0.3443 -6.70517,-0.6557 z m 17.74895,-46.7697 v -18.0613 l 7.29681,-0.5311 c 15.24497,-1.1094 26.184894,-3.9006 29.819714,-7.6081 1.472639,-1.502 1.697738,-2.1944 1.042008,-3.2049 -1.34275,-2.0688 -5.796198,-4.6428 -10.105009,-5.8402 -4.434573,-1.2324 -20.362283,-3.3854 -25.045193,-3.3854 h -3.00833 v -5.2735 -5.2734 l 13.60757,-0.2069 13.607563,-0.2069 v -8.6928 -8.6928 l -36.878423,-0.1965 -36.87844,-0.1966 v 9.0782 9.0783 h 13.41034 13.41033 v 5.2913 5.2913 h -2.72055 c -5.20614,0 -20.81542,2.2785 -25.8822,3.7782 -18.98013,5.6175 -7.60777,14.1624 21.70038,16.3051 l 6.90237,0.5046 v 18.0522 18.0522 h 9.86053 9.86053 z m -33.13806,-23.1388 c -8.43466,-1.1042 -15.57227,-2.9096 -17.81632,-4.5068 -4.83089,-3.4385 6.61157,-7.1709 27.48631,-8.9658 l 3.74701,-0.3222 v 6.2442 6.2442 l 5.2227,0.3187 c 2.87248,0.1752 7.30973,0.1739 9.86054,0 l 4.63782,-0.3216 v -6.3487 c 0,-6.1826 0.0465,-6.3395 1.77493,-6.0018 0.97618,0.1909 4.61473,0.5547 8.08564,0.8086 10.75063,0.7864 21.843073,3.7465 22.776812,6.0781 1.036042,2.5872 -7.641002,5.4832 -21.199132,7.0753 -9.40608,1.1045 -35.17178,0.9314 -44.57631,-0.2996 z"
         id="path1315"
         inkscape:export-xdpi="95.999985"
         inkscape:export-ydpi="95.999985" />
    </clipPath>
    <clipPath
       clipPathUnits="userSpaceOnUse"
       id="clipPath1313-7">
      <path
         style="fill:#000000;stroke-width:0.772192"
         d="m -142.77839,1417.2915 c -5.17265,-0.5304 -11.09494,-1.7277 -13.80476,-2.7911 -0.6508,-0.2555 -1.4495,-0.5361 -1.7749,-0.6241 -0.3254,-0.088 -0.68038,-0.2283 -0.78884,-0.312 -0.10851,-0.084 -0.86846,-0.2734 -1.6889,-0.4212 -2.14488,-0.3866 -15.69095,-6.748 -17.06846,-8.0155 -0.63851,-0.5876 -2.22587,-1.7199 -3.52747,-2.5164 -4.09049,-2.503 -11.46938,-9.6517 -15.99482,-15.4959 -3.93536,-5.0824 -9.64258,-14.8702 -9.64258,-16.5368 0,-0.3633 -0.5116,-1.6484 -1.13687,-2.8554 -0.62528,-1.2073 -1.33619,-3.0454 -1.5798,-4.0848 -0.24361,-1.0393 -0.98745,-4.1006 -1.65298,-6.803 -1.7392,-7.0617 -1.73163,-21.5692 0.0152,-29.102 0.77128,-3.326 1.69053,-6.3979 2.0428,-6.8266 0.35227,-0.4286 0.82811,-1.7708 1.05743,-2.9826 0.44191,-2.3352 6.46667,-14.8342 7.47084,-15.499 0.32588,-0.2157 1.91266,-2.3161 3.52615,-4.6677 5.77827,-8.4209 19.3318,-19.0433 29.69942,-23.2768 2.38626,-0.9744 5.41184,-2.2113 6.72352,-2.7487 1.3117,-0.5375 3.26408,-1.1688 4.33865,-1.4029 1.07456,-0.2344 4.26111,-0.9497 7.08123,-1.5898 7.25985,-1.6479 23.21962,-1.628 30.76489,0.039 3.254,0.7185 6.27133,1.5778 6.70517,1.9095 0.43387,0.3318 1.05509,0.6322 1.38049,0.6675 0.32539,0.035 0.68038,0.089 0.78881,0.1223 0.10851,0.031 0.86848,0.1789 1.68893,0.3268 2.14489,0.3866 15.690939,6.748 17.068469,8.0155 0.6385,0.5875 2.225871,1.7199 3.527462,2.5164 4.090479,2.5029 11.469378,9.6516 15.9948,15.4959 3.935371,5.0824 9.642589,14.87 9.642589,16.5367 0,0.3633 0.511596,1.6484 1.13687,2.8555 0.625303,1.2072 1.336188,3.0454 1.579803,4.0847 0.243586,1.0393 0.987444,4.1006 1.652995,6.8031 1.739199,7.0617 1.731632,21.5692 -0.01479,29.102 -0.771276,3.326 -1.690526,6.3979 -2.042822,6.8265 -0.352261,0.4287 -0.828106,1.7709 -1.057439,2.9827 -0.441896,2.3351 -6.466657,14.8342 -7.470838,15.499 -0.325856,0.2157 -1.912636,2.3161 -3.526123,4.6675 -5.778278,8.421 -19.33179,19.0435 -29.699446,23.2769 -2.38624,0.9746 -5.40353,2.204 -6.70513,2.7323 -5.52118,2.2407 -22.68507,5.1516 -28.00397,4.7491 -0.65078,-0.049 -3.6681,-0.3443 -6.70517,-0.6557 z m 17.74895,-46.7697 v -18.0613 l 7.29681,-0.5311 c 15.24497,-1.1094 26.184894,-3.9006 29.819714,-7.6081 1.472639,-1.502 1.697738,-2.1944 1.042008,-3.2049 -1.34275,-2.0688 -5.796198,-4.6428 -10.105009,-5.8402 -4.434573,-1.2324 -20.362283,-3.3854 -25.045193,-3.3854 h -3.00833 v -5.2735 -5.2734 l 13.60757,-0.2069 13.607563,-0.2069 v -8.6928 -8.6928 l -36.878423,-0.1965 -36.87844,-0.1966 v 9.0782 9.0783 h 13.41034 13.41033 v 5.2913 5.2913 h -2.72055 c -5.20614,0 -20.81542,2.2785 -25.8822,3.7782 -18.98013,5.6175 -7.60777,14.1624 21.70038,16.3051 l 6.90237,0.5046 v 18.0522 18.0522 h 9.86053 9.86053 z m -33.13806,-23.1388 c -8.43466,-1.1042 -15.57227,-2.9096 -17.81632,-4.5068 -4.83089,-3.4385 6.61157,-7.1709 27.48631,-8.9658 l 3.74701,-0.3222 v 6.2442 6.2442 l 5.2227,0.3187 c 2.87248,0.1752 7.30973,0.1739 9.86054,0 l 4.63782,-0.3216 v -6.3487 c 0,-6.1826 0.0465,-6.3395 1.77493,-6.0018 0.97618,0.1909 4.61473,0.5547 8.08564,0.8086 10.75063,0.7864 21.843073,3.7465 22.776812,6.0781 1.036042,2.5872 -7.641002,5.4832 -21.199132,7.0753 -9.40608,1.1045 -35.17178,0.9314 -44.57631,-0.2996 z"
         id="path1315-2"
         inkscape:export-xdpi="95.999985"
         inkscape:export-ydpi="95.999985" />
    </clipPath>
    <clipPath
       clipPathUnits="userSpaceOnUse"
       id="clipPath1313-7-6">
      <path
         style="fill:#000000;stroke-width:0.772192"
         d="m -142.77839,1417.2915 c -5.17265,-0.5304 -11.09494,-1.7277 -13.80476,-2.7911 -0.6508,-0.2555 -1.4495,-0.5361 -1.7749,-0.6241 -0.3254,-0.088 -0.68038,-0.2283 -0.78884,-0.312 -0.10851,-0.084 -0.86846,-0.2734 -1.6889,-0.4212 -2.14488,-0.3866 -15.69095,-6.748 -17.06846,-8.0155 -0.63851,-0.5876 -2.22587,-1.7199 -3.52747,-2.5164 -4.09049,-2.503 -11.46938,-9.6517 -15.99482,-15.4959 -3.93536,-5.0824 -9.64258,-14.8702 -9.64258,-16.5368 0,-0.3633 -0.5116,-1.6484 -1.13687,-2.8554 -0.62528,-1.2073 -1.33619,-3.0454 -1.5798,-4.0848 -0.24361,-1.0393 -0.98745,-4.1006 -1.65298,-6.803 -1.7392,-7.0617 -1.73163,-21.5692 0.0152,-29.102 0.77128,-3.326 1.69053,-6.3979 2.0428,-6.8266 0.35227,-0.4286 0.82811,-1.7708 1.05743,-2.9826 0.44191,-2.3352 6.46667,-14.8342 7.47084,-15.499 0.32588,-0.2157 1.91266,-2.3161 3.52615,-4.6677 5.77827,-8.4209 19.3318,-19.0433 29.69942,-23.2768 2.38626,-0.9744 5.41184,-2.2113 6.72352,-2.7487 1.3117,-0.5375 3.26408,-1.1688 4.33865,-1.4029 1.07456,-0.2344 4.26111,-0.9497 7.08123,-1.5898 7.25985,-1.6479 23.21962,-1.628 30.76489,0.039 3.254,0.7185 6.27133,1.5778 6.70517,1.9095 0.43387,0.3318 1.05509,0.6322 1.38049,0.6675 0.32539,0.035 0.68038,0.089 0.78881,0.1223 0.10851,0.031 0.86848,0.1789 1.68893,0.3268 2.14489,0.3866 15.690939,6.748 17.068469,8.0155 0.6385,0.5875 2.225871,1.7199 3.527462,2.5164 4.090479,2.5029 11.469378,9.6516 15.9948,15.4959 3.935371,5.0824 9.642589,14.87 9.642589,16.5367 0,0.3633 0.511596,1.6484 1.13687,2.8555 0.625303,1.2072 1.336188,3.0454 1.579803,4.0847 0.243586,1.0393 0.987444,4.1006 1.652995,6.8031 1.739199,7.0617 1.731632,21.5692 -0.01479,29.102 -0.771276,3.326 -1.690526,6.3979 -2.042822,6.8265 -0.352261,0.4287 -0.828106,1.7709 -1.057439,2.9827 -0.441896,2.3351 -6.466657,14.8342 -7.470838,15.499 -0.325856,0.2157 -1.912636,2.3161 -3.526123,4.6675 -5.778278,8.421 -19.33179,19.0435 -29.699446,23.2769 -2.38624,0.9746 -5.40353,2.204 -6.70513,2.7323 -5.52118,2.2407 -22.68507,5.1516 -28.00397,4.7491 -0.65078,-0.049 -3.6681,-0.3443 -6.70517,-0.6557 z m 17.74895,-46.7697 v -18.0613 l 7.29681,-0.5311 c 15.24497,-1.1094 26.184894,-3.9006 29.819714,-7.6081 1.472639,-1.502 1.697738,-2.1944 1.042008,-3.2049 -1.34275,-2.0688 -5.796198,-4.6428 -10.105009,-5.8402 -4.434573,-1.2324 -20.362283,-3.3854 -25.045193,-3.3854 h -3.00833 v -5.2735 -5.2734 l 13.60757,-0.2069 13.607563,-0.2069 v -8.6928 -8.6928 l -36.878423,-0.1965 -36.87844,-0.1966 v 9.0782 9.0783 h 13.41034 13.41033 v 5.2913 5.2913 h -2.72055 c -5.20614,0 -20.81542,2.2785 -25.8822,3.7782 -18.98013,5.6175 -7.60777,14.1624 21.70038,16.3051 l 6.90237,0.5046 v 18.0522 18.0522 h 9.86053 9.86053 z m -33.13806,-23.1388 c -8.43466,-1.1042 -15.57227,-2.9096 -17.81632,-4.5068 -4.83089,-3.4385 6.61157,-7.1709 27.48631,-8.9658 l 3.74701,-0.3222 v 6.2442 6.2442 l 5.2227,0.3187 c 2.87248,0.1752 7.30973,0.1739 9.86054,0 l 4.63782,-0.3216 v -6.3487 c 0,-6.1826 0.0465,-6.3395 1.77493,-6.0018 0.97618,0.1909 4.61473,0.5547 8.08564,0.8086 10.75063,0.7864 21.843073,3.7465 22.776812,6.0781 1.036042,2.5872 -7.641002,5.4832 -21.199132,7.0753 -9.40608,1.1045 -35.17178,0.9314 -44.57631,-0.2996 z"
         id="path1315-2-0"
         inkscape:export-xdpi="95.999985"
         inkscape:export-ydpi="95.999985" />
    </clipPath>
    <linearGradient
       x1="454.86395"
       y1="-5439.4736"
       x2="569.02521"
       y2="-5279.1289"
       id="a"
       gradientTransform="matrix(0.06682958,0,0,0.07468692,-19.093714,464.50189)"
       gradientUnits="userSpaceOnUse">
      <stop
         stop-color="#FF9400"
         offset="0%"
         id="stop1463" />
      <stop
         stop-color="#FFBB21"
         offset="100%"
         id="stop1465" />
    </linearGradient>
    <linearGradient
       x1="-22.982%"
       y1="-43.915%"
       x2="91.53%"
       y2="101%"
       id="a-2">
      <stop
         stop-color="#3FA0F1"
         offset="0%"
         id="stop854" />
      <stop
         stop-color="#295ADA"
         offset="100%"
         id="stop856" />
    </linearGradient>
    <linearGradient
       inkscape:collect="always"
       xlink:href="#linearGradient903"
       id="linearGradient905"
       x1="28.873774"
       y1="83.369789"
       x2="12.877576"
       y2="59.505722"
       gradientUnits="userSpaceOnUse" />
  </defs>
  <sodipodi:namedview
     id="base"
     pagecolor="#ffffff"
     bordercolor="#666666"
     borderopacity="1.0"
     inkscape:pageopacity="0.0"
     inkscape:pageshadow="2"
     inkscape:zoom="0.3535534"
     inkscape:cx="-59.540646"
     inkscape:cy="382.55228"
     inkscape:document-units="mm"
     inkscape:current-layer="layer1"
     inkscape:document-rotation="0"
     showgrid="false"
     showguides="true"
     inkscape:guide-bbox="true"
     inkscape:snap-global="true"
     units="px"
     inkscape:window-width="2400"
     inkscape:window-height="1271"
     inkscape:window-x="-9"
     inkscape:window-y="-9"
     inkscape:window-maximized="1">
    <sodipodi:guide
       position="-856.11775,-765.28946"
       orientation="1,0"
       id="guide906" />
    <sodipodi:guide
       position="-673.17558,-530.01192"
       orientation="0,-1"
       id="guide908" />
    <sodipodi:guide
       position="-751.79463,-641.5149"
       orientation="0,-1"
       id="guide910" />
  </sodipodi:namedview>
  <metadata
     id="metadata5">
    <rdf:RDF>
      <cc:Work
         rdf:about="">
        <dc:format>image/svg+xml</dc:format>
        <dc:type
           rdf:resource="http://purl.org/dc/dcmitype/StillImage" />
        <dc:title />
      </cc:Work>
    </rdf:RDF>
  </metadata>
  <g
     inkscape:label="Capa 1"
     inkscape:groupmode="layer"
     id="layer1">
    <g
       id="g1124"
       transform="matrix(1.1446987,0,0,1.0859438,49.494458,-106.30716)" />
    <g
       fill="none"
       fill-rule="evenodd"
       id="g1474"
       transform="matrix(3.7426626,0,0,3.7474076,-10.030336,-2.3200261)">
      <path
         d="m 22,51.155 13.32,7.69 a 4,4 0 0 1 2,3.464 v 15.382 a 4,4 0 0 1 -2,3.464 L 22,88.845 a 4,4 0 0 1 -4,0 L 4.68,81.155 a 4,4 0 0 1 -2,-3.464 V 62.309 a 4,4 0 0 1 2,-3.464 L 18,51.155 a 4,4 0 0 1 4,0 z"
         fill="url(#a)"
         transform="translate(0,-50)"
         id="path1470"
         style="fill:url(#linearGradient905);fill-opacity:1" />
      <path
         d="m 19.999509,10.233016 -1.794497,1.030442 -4.88966,2.822646 -1.793515,1.030441 v 9.766923 l 1.793515,1.030442 4.934645,2.822631 1.794498,1.030443 1.794498,-1.030443 4.844672,-2.822631 1.794498,-1.030442 v -9.766923 l -1.794498,-1.030441 -4.889657,-2.822646 z m -4.889645,12.589551 v -5.645273 l 4.889645,-2.822645 4.889658,2.822645 v 5.645273 l -4.889658,2.822631 z"
         fill="#ffffff"
         fill-rule="nonzero"
         id="path863-1"
         style="stroke-width:0.97731" />
    </g>
    <path
       style="fill:#000000;stroke-width:0.264583"
       id="path860"
       d="" />
  </g>
  <style
     type="text/css"
     id="style862">
	.st0{fill:url(#Path_3_);}
	.st1{fill:#FFFFFF;}
</style>
</svg>
